<svg width="70" height="70" viewBox="0 0 70 70" fill="none" xmlns="http://www.w3.org/2000/svg">
<mask id="path-1-inside-1_402_7" fill="white">
<path d="M70 35C70 54.33 54.33 70 35 70C15.67 70 0 54.33 0 35C0 15.67 15.67 0 35 0C54.33 0 70 15.67 70 35Z"/>
</mask>
<path d="M27.5 51.0004L27.9471 51.8948C28.2333 51.7518 28.4338 51.4804 28.4864 51.1647L27.5 51.0004ZM27.5 43.5004L28.4939 43.3899C28.4919 43.3719 28.4894 43.3539 28.4864 43.336L27.5 43.5004ZM24 35.5004L23.1425 36.0149L23.1425 36.0149L24 35.5004ZM23 29.5004L22.0028 29.426L22.0028 29.426L23 29.5004ZM23 25.5004L22.0004 25.4725L22.0004 25.4725L23 25.5004ZM22.5 18.5004L21.5199 18.3016L21.5199 18.3016L22.5 18.5004ZM27.5 11.5004L28.0233 12.3525L28.0233 12.3525L27.5 11.5004ZM35 10.0004L34.9872 11.0003C34.9957 11.0004 35.0043 11.0004 35.0128 11.0003L35 10.0004ZM42.5 51.0004L41.5136 51.1647C41.5662 51.4804 41.7667 51.7518 42.0529 51.8948L42.5 51.0004ZM42.5 43.5004L41.5136 43.336C41.5106 43.3539 41.5081 43.3719 41.5061 43.3899L42.5 43.5004ZM46 35.5004L46.8575 36.0149L46.8575 36.0149L46 35.5004ZM47 29.5004L47.9972 29.426L47.9972 29.426L47 29.5004ZM47 25.5004L47.9996 25.4725L47.9996 25.4725L47 25.5004ZM47.5 18.5004L48.4801 18.3016L48.4801 18.3016L47.5 18.5004ZM42.5 11.5004L41.9767 12.3525L41.9767 12.3525L42.5 11.5004ZM11 57.5C11.3473 58.4377 11.3474 58.4377 11.3475 58.4377C11.3476 58.4376 11.3478 58.4376 11.348 58.4375C11.3484 58.4373 11.349 58.4371 11.3499 58.4368C11.3515 58.4362 11.354 58.4353 11.3573 58.434C11.3639 58.4316 11.3736 58.428 11.3865 58.4232C11.4123 58.4137 11.4505 58.3995 11.5004 58.3809C11.6003 58.3438 11.7471 58.2893 11.9349 58.2194C12.3105 58.0795 12.8503 57.878 13.5074 57.6316C14.8213 57.1389 16.605 56.4662 18.4829 55.7463C22.2105 54.3174 26.3924 52.672 27.9471 51.8948L27.0529 50.1059C25.6076 50.8284 21.5395 52.4327 17.7671 53.8788C15.895 54.5964 14.1162 55.2674 12.8051 55.759C12.1497 56.0048 11.6113 56.2057 11.237 56.3451C11.0498 56.4148 10.9036 56.4691 10.8042 56.506C10.7546 56.5245 10.7166 56.5385 10.6911 56.548C10.6784 56.5527 10.6687 56.5563 10.6623 56.5587C10.6591 56.5599 10.6567 56.5608 10.6551 56.5614C10.6543 56.5617 10.6537 56.5619 10.6533 56.562C10.6531 56.5621 10.6529 56.5622 10.6528 56.5622C10.6527 56.5622 10.6527 56.5623 11 57.5ZM28.4864 51.1647C28.754 49.559 28.7498 47.5995 28.6866 46.0836C28.6547 45.3169 28.6068 44.6465 28.5669 44.1673C28.5469 43.9274 28.5288 43.7349 28.5157 43.6015C28.5091 43.5348 28.5038 43.4829 28.5 43.4471C28.4981 43.4292 28.4967 43.4154 28.4956 43.4058C28.4951 43.401 28.4947 43.3973 28.4944 43.3946C28.4943 43.3933 28.4941 43.3922 28.4941 43.3914C28.494 43.3911 28.494 43.3907 28.4939 43.3905C28.4939 43.3903 28.4939 43.3902 28.4939 43.3901C28.4939 43.39 28.4939 43.3899 27.5 43.5004C26.5061 43.6108 26.5061 43.6107 26.5061 43.6107C26.5061 43.6107 26.5061 43.6106 26.5061 43.6106C26.5061 43.6107 26.5061 43.6107 26.5061 43.6109C26.5062 43.6112 26.5062 43.6118 26.5063 43.6126C26.5065 43.6143 26.5068 43.6171 26.5072 43.6209C26.508 43.6285 26.5093 43.6403 26.511 43.6561C26.5143 43.6878 26.5192 43.7354 26.5253 43.7976C26.5376 43.922 26.5547 44.1045 26.5738 44.3334C26.612 44.7916 26.6578 45.4336 26.6884 46.1669C26.7502 47.6508 26.746 49.4414 26.5136 50.836L28.4864 51.1647ZM27.5 43.5004C28.4864 43.336 28.4863 43.3356 28.4863 43.3353C28.4863 43.3351 28.4862 43.3348 28.4861 43.3345C28.4861 43.3339 28.486 43.3334 28.4858 43.3327C28.4856 43.3314 28.4854 43.33 28.4851 43.3284C28.4845 43.3251 28.4838 43.3211 28.483 43.3164C28.4813 43.3069 28.4791 43.2945 28.4762 43.2793C28.4704 43.2488 28.4621 43.2068 28.4508 43.1536C28.4281 43.0471 28.3934 42.8956 28.3426 42.701C28.2411 42.3119 28.0756 41.7508 27.8148 41.0335C27.293 39.5986 26.3905 37.5407 24.8575 34.9858L23.1425 36.0149C24.6095 38.4597 25.457 40.4018 25.9352 41.717C26.1744 42.3747 26.3214 42.8762 26.4074 43.2058C26.4504 43.3707 26.4781 43.4926 26.4945 43.5698C26.5027 43.6083 26.5081 43.6357 26.5111 43.6516C26.5126 43.6595 26.5136 43.6646 26.5139 43.6668C26.5141 43.6679 26.5142 43.6683 26.5141 43.668C26.5141 43.6678 26.5141 43.6674 26.514 43.6669C26.5139 43.6666 26.5139 43.6663 26.5138 43.666C26.5138 43.6658 26.5137 43.6655 26.5137 43.6654C26.5137 43.6651 26.5136 43.6647 27.5 43.5004ZM24.8575 34.9858C23.8221 33.2604 23.8254 31.8797 23.9972 29.5747L22.0028 29.426C21.8262 31.7943 21.7667 33.7219 23.1425 36.0149L24.8575 34.9858ZM23.9972 29.5747C24.0596 28.7374 24.0475 28.0899 24.0269 27.4686C24.0063 26.8485 23.9787 26.2772 23.9996 25.5282L22.0004 25.4725C21.9774 26.2971 22.0083 26.9409 22.028 27.5349C22.0476 28.1278 22.0574 28.6934 22.0028 29.426L23.9972 29.5747ZM23.9996 25.5282C24.0419 24.0131 23.7494 22.8114 23.5554 21.793C23.361 20.7724 23.244 19.8632 23.4801 18.6991L21.5199 18.3016C21.2072 19.8438 21.3788 21.0545 21.5908 22.1673C21.8032 23.2822 22.0351 24.2273 22.0004 25.4725L23.9996 25.5282ZM23.4801 18.6991C23.7922 17.1595 24.2797 15.9896 24.9873 15.0109C25.697 14.0291 26.6676 13.1851 28.0233 12.3525L26.9767 10.6482C25.4697 11.5737 24.2741 12.5836 23.3664 13.8391C22.4565 15.0978 21.8754 16.5488 21.5199 18.3016L23.4801 18.6991ZM28.0233 12.3525C29.0967 11.6933 30.7821 11.3349 32.3191 11.1576C33.0655 11.0715 33.7375 11.032 34.2227 11.0142C34.4648 11.0054 34.6592 11.0019 34.7916 11.0006C34.8577 11 34.9083 11 34.9415 11C34.9581 11.0001 34.9704 11.0001 34.9781 11.0002C34.982 11.0002 34.9847 11.0002 34.9862 11.0003C34.987 11.0003 34.9874 11.0003 34.9876 11.0003C34.9877 11.0003 34.9877 11.0003 34.9877 11.0003C34.9876 11.0003 34.9875 11.0003 34.9875 11.0003C34.9874 11.0003 34.9872 11.0003 35 10.0004C35.0128 9.00044 35.0126 9.00043 35.0124 9.00043C35.0123 9.00043 35.0121 9.00043 35.0119 9.00042C35.0115 9.00042 35.0111 9.00041 35.0106 9.00041C35.0096 9.0004 35.0082 9.00038 35.0066 9.00037C35.0034 9.00033 34.9989 9.00029 34.9933 9.00025C34.9821 9.00016 34.9662 9.00007 34.9459 9.00003C34.9053 8.99994 34.847 9.00004 34.7727 9.00074C34.6242 9.00214 34.4115 9.00596 34.1494 9.01558C33.626 9.03478 32.9003 9.07726 32.0899 9.17075C30.5131 9.35265 28.4486 9.74425 26.9767 10.6482L28.0233 12.3525ZM59 57.5C59.3473 56.5623 59.3473 56.5622 59.3472 56.5622C59.3471 56.5622 59.3469 56.5621 59.3467 56.562C59.3463 56.5619 59.3457 56.5617 59.3449 56.5614C59.3433 56.5608 59.3409 56.5599 59.3377 56.5587C59.3313 56.5563 59.3216 56.5527 59.3089 56.548C59.2834 56.5385 59.2454 56.5245 59.1958 56.506C59.0964 56.4691 58.9502 56.4148 58.763 56.3451C58.3887 56.2057 57.8503 56.0048 57.1949 55.759C55.8838 55.2674 54.105 54.5964 52.2329 53.8788C48.4605 52.4327 44.3924 50.8284 42.9471 50.1059L42.0529 51.8948C43.6076 52.672 47.7895 54.3174 51.5171 55.7463C53.395 56.4662 55.1787 57.1389 56.4926 57.6316C57.1497 57.878 57.6895 58.0795 58.0651 58.2194C58.2529 58.2893 58.3997 58.3438 58.4996 58.3809C58.5495 58.3995 58.5877 58.4137 58.6135 58.4232C58.6264 58.428 58.6361 58.4316 58.6427 58.434C58.646 58.4353 58.6485 58.4362 58.6501 58.4368C58.651 58.4371 58.6516 58.4373 58.652 58.4375C58.6522 58.4376 58.6524 58.4376 58.6525 58.4377C58.6526 58.4377 58.6527 58.4377 59 57.5ZM43.4864 50.836C43.254 49.4414 43.2498 47.6508 43.3116 46.1669C43.3422 45.4336 43.388 44.7916 43.4262 44.3334C43.4453 44.1045 43.4624 43.922 43.4747 43.7976C43.4808 43.7354 43.4857 43.6878 43.489 43.6561C43.4907 43.6403 43.492 43.6285 43.4928 43.6209C43.4932 43.6171 43.4935 43.6143 43.4937 43.6126C43.4938 43.6118 43.4938 43.6112 43.4939 43.6109C43.4939 43.6107 43.4939 43.6107 43.4939 43.6106C43.4939 43.6106 43.4939 43.6107 43.4939 43.6107C43.4939 43.6107 43.4939 43.6108 42.5 43.5004C41.5061 43.3899 41.5061 43.39 41.5061 43.3901C41.5061 43.3902 41.5061 43.3903 41.5061 43.3905C41.506 43.3907 41.506 43.3911 41.5059 43.3914C41.5059 43.3922 41.5057 43.3933 41.5056 43.3946C41.5053 43.3973 41.5049 43.401 41.5044 43.4058C41.5033 43.4154 41.5019 43.4292 41.5 43.4471C41.4962 43.4829 41.4909 43.5348 41.4843 43.6015C41.4712 43.7349 41.4531 43.9274 41.4331 44.1673C41.3932 44.6465 41.3453 45.3169 41.3134 46.0836C41.2502 47.5995 41.246 49.559 41.5136 51.1647L43.4864 50.836ZM42.5 43.5004C43.4864 43.6647 43.4863 43.6651 43.4863 43.6654C43.4863 43.6655 43.4862 43.6658 43.4862 43.666C43.4861 43.6663 43.4861 43.6666 43.486 43.6669C43.4859 43.6674 43.4859 43.6678 43.4859 43.668C43.4858 43.6683 43.4859 43.6679 43.4861 43.6668C43.4864 43.6646 43.4874 43.6595 43.4889 43.6516C43.4919 43.6357 43.4973 43.6083 43.5055 43.5698C43.5219 43.4926 43.5496 43.3707 43.5926 43.2058C43.6786 42.8762 43.8256 42.3747 44.0648 41.717C44.543 40.4018 45.3905 38.4597 46.8575 36.0149L45.1425 34.9858C43.6095 37.5407 42.707 39.5986 42.1852 41.0335C41.9244 41.7508 41.7589 42.3119 41.6574 42.701C41.6066 42.8956 41.5719 43.0471 41.5492 43.1536C41.5379 43.2068 41.5296 43.2488 41.5238 43.2793C41.5209 43.2945 41.5187 43.3069 41.517 43.3164C41.5162 43.3211 41.5155 43.3251 41.5149 43.3284C41.5146 43.33 41.5144 43.3314 41.5142 43.3327C41.514 43.3334 41.5139 43.3339 41.5139 43.3345C41.5138 43.3348 41.5137 43.3351 41.5137 43.3353C41.5137 43.3356 41.5136 43.336 42.5 43.5004ZM46.8575 36.0149C48.2333 33.7219 48.1737 31.7943 47.9972 29.426L46.0028 29.5747C46.1746 31.8797 46.1779 33.2604 45.1425 34.9858L46.8575 36.0149ZM47.9972 29.426C47.9426 28.6934 47.9524 28.1278 47.972 27.5349C47.9917 26.9409 48.0226 26.2971 47.9996 25.4725L46.0004 25.5282C46.0213 26.2772 45.9937 26.8485 45.9731 27.4686C45.9525 28.0899 45.9404 28.7374 46.0028 29.5747L47.9972 29.426ZM47.9996 25.4725C47.9649 24.2273 48.1968 23.2822 48.4092 22.1673C48.6212 21.0545 48.7928 19.8438 48.4801 18.3016L46.5199 18.6991C46.756 19.8632 46.639 20.7724 46.4446 21.793C46.2506 22.8114 45.9581 24.0131 46.0004 25.5282L47.9996 25.4725ZM48.4801 18.3016C48.1246 16.5488 47.5435 15.0978 46.6336 13.8391C45.7259 12.5836 44.5303 11.5737 43.0233 10.6482L41.9767 12.3525C43.3324 13.1851 44.303 14.0291 45.0127 15.0109C45.7203 15.9896 46.2078 17.1595 46.5199 18.6991L48.4801 18.3016ZM43.0233 10.6482C41.5514 9.74425 39.4869 9.35265 37.9101 9.17075C37.0997 9.07726 36.374 9.03478 35.8506 9.01558C35.5885 9.00596 35.3758 9.00214 35.2273 9.00074C35.153 9.00004 35.0947 8.99994 35.0541 9.00003C35.0338 9.00007 35.0179 9.00016 35.0067 9.00025C35.0011 9.00029 34.9966 9.00033 34.9934 9.00037C34.9918 9.00038 34.9904 9.0004 34.9894 9.00041C34.9889 9.00041 34.9885 9.00042 34.9881 9.00042C34.9879 9.00043 34.9877 9.00043 34.9876 9.00043C34.9874 9.00043 34.9872 9.00044 35 10.0004C35.0128 11.0003 35.0126 11.0003 35.0125 11.0003C35.0125 11.0003 35.0124 11.0003 35.0123 11.0003C35.0123 11.0003 35.0123 11.0003 35.0124 11.0003C35.0126 11.0003 35.013 11.0003 35.0138 11.0003C35.0153 11.0002 35.018 11.0002 35.0219 11.0002C35.0296 11.0001 35.0419 11.0001 35.0585 11C35.0917 11 35.1423 11 35.2084 11.0006C35.3408 11.0019 35.5352 11.0054 35.7773 11.0142C36.2625 11.032 36.9345 11.0715 37.6809 11.1576C39.2179 11.3349 40.9033 11.6933 41.9767 12.3525L43.0233 10.6482ZM68 35C68 53.2254 53.2254 68 35 68V72C55.4345 72 72 55.4345 72 35H68ZM35 68C16.7746 68 2 53.2254 2 35H-2C-2 55.4345 14.5655 72 35 72V68ZM2 35C2 16.7746 16.7746 2 35 2V-2C14.5655 -2 -2 14.5655 -2 35H2ZM35 2C53.2254 2 68 16.7746 68 35H72C72 14.5655 55.4345 -2 35 -2V2Z" fill="#3B8694" mask="url(#path-1-inside-1_402_7)"/>
</svg>
